<svg xmlns="http://www.w3.org/2000/svg" version="1.1" viewBox="-5.0 -10.0 110.0 135.0">
 <g>
  <path d="m14.293 60.957c0.41797-1.0078 1.0469-1.8672 1.8477-2.5352-1.8867-4.418-2.9336-9.2773-2.9336-14.363 0-20.281 16.512-36.797 36.797-36.797s36.781 16.516 36.781 36.801c0 5.0859-1.0273 9.9414-2.9336 14.363 0.80078 0.66797 1.4453 1.5234 1.8672 2.5352l1.0273 2.4766c3.0664-5.7695 4.8008-12.379 4.8008-19.371 0-22.914-18.629-41.562-41.543-41.562-22.914-0.003906-41.559 18.645-41.559 41.559 0 6.9922 1.7344 13.582 4.8008 19.352z"/>
  <path d="m28.766 62.535v2l3.125 0.26562c2.1719 0.17188 4.0586 1.3711 5.1445 3.1602h6.5312c1.125-2.5508 3.6367-4.2109 6.4375-4.2109 2.8008 0 5.3125 1.6562 6.4375 4.2109h6.5156c1.0859-1.7891 2.9922-2.9922 5.1445-3.1602l3.125-0.26562v-2c0-7.8867-4.7617-14.836-12.152-17.715l-0.37891-0.15234-0.34375 0.21094c-5.1602 2.9727-11.523 2.9727-16.684 0l-0.34375-0.21094-0.37891 0.15234c-7.3906 2.875-12.172 9.8281-12.172 17.715z"/>
  <path d="m50 42.348c6.6172 0 12.004-5.3828 12.004-12 0-6.6172-5.3867-12.004-12.004-12.004s-12.008 5.3867-12.008 12.004c0 6.6172 5.3867 12 12.008 12z"/>
  <path d="m63.004 77.844-7.8516-0.64062-3.0312-7.2695c-0.78516-1.8828-3.4531-1.8828-4.2383 0l-3.0312 7.2695-7.8516 0.63672c-2.0312 0.16406-2.8555 2.6992-1.3086 4.0273l5.9766 5.1289-1.8164 7.668c-0.47266 1.9844 1.6875 3.5508 3.4258 2.4883l6.7266-4.0977 6.7266 4.0977c1.7422 1.0625 3.8984-0.50781 3.4258-2.4883l-1.8203-7.6602 5.9766-5.1328c1.5469-1.3281 0.72266-3.8633-1.3086-4.0273z"/>
  <path d="m90.629 69.539-6.7109-0.54687-2.5898-6.2148c-0.65234-1.5664-2.875-1.5664-3.5312 0l-2.5938 6.2148-6.7109 0.54687c-1.6914 0.13672-2.3789 2.25-1.0898 3.3555l5.1094 4.3867-1.5547 6.5547c-0.39062 1.6523 1.4062 2.957 2.8555 2.0742l5.75-3.5039 5.75 3.5039c1.4492 0.88281 3.25-0.42188 2.8555-2.0742l-1.5547-6.5469 5.1094-4.3867c1.2891-1.1055 0.60156-3.2188-1.0898-3.3555z"/>
  <path d="m31.512 69.539-6.7109-0.54687-2.5898-6.2148c-0.65234-1.5703-2.875-1.5664-3.5312 0l-2.5898 6.2148-6.7148 0.54687c-1.6914 0.13672-2.3789 2.25-1.0898 3.3555l5.1094 4.3867-1.5547 6.5547c-0.39062 1.6523 1.4062 2.957 2.8555 2.0742l5.75-3.5039 5.75 3.5039c1.4531 0.88281 3.25-0.42188 2.8555-2.0742l-1.5547-6.5469 5.1094-4.3867c1.2891-1.1055 0.60156-3.2188-1.0898-3.3555z"/>
 </g>
<text x="0.0" y="117.5" font-size="5.0" font-weight="bold" font-family="Arbeit Regular, Helvetica, Arial-Unicode, Arial, Sans-serif" fill="#000000">Created by Adrien Coquet</text><text x="0.0" y="122.5" font-size="5.0" font-weight="bold" font-family="Arbeit Regular, Helvetica, Arial-Unicode, Arial, Sans-serif" fill="#000000">from Noun Project</text></svg>